<svg id="Group_442" data-name="Group 442" xmlns="http://www.w3.org/2000/svg" xmlns:xlink="http://www.w3.org/1999/xlink" width="183.614" height="77.729" viewBox="0 0 183.614 77.729">
  <defs>
    <clipPath id="clip-path">
      <rect id="Rectangle_965" data-name="Rectangle 965" width="183.614" height="77.73" fill="none"/>
    </clipPath>
  </defs>
  <g id="Group_442-2" data-name="Group 442" clip-path="url(#clip-path)">
    <path id="Path_17" data-name="Path 17" d="M603.52,235.094a6.527,6.527,0,0,1-6.729,5.263h-7.143a1.617,1.617,0,0,1-1.842-1.729h-.075l-1.165,4.812c-.376,1.617-.526,2.82-.151,3.609l-9.712.289,5.163-20.664a6.156,6.156,0,0,0,0-3.985h8.872l.038,1.88c.714-.94,1.391-1.88,2.744-1.88h7.669c3.834,0,4.849,2.293,4.1,5.338Zm-7.932-8.947h-3.534a1.434,1.434,0,0,0-1.5,1.278l-2.068,8.2c-.225.865.075,1.278.9,1.278h3.534a1.437,1.437,0,0,0,1.579-1.278l2.068-8.2c.226-.865-.038-1.278-.978-1.278" transform="translate(-505.077 -195.03)" fill="#003473"/>
    <path id="Path_18" data-name="Path 18" d="M177.176,360.822c-11.2,6.106-31.43,7.624-43.377,3.724-10.28-3.355-27.074-5.686-42.889-2.544-15.869,3.152-25.064,4.1-37.764,1.063-6.787-1.624-13.863-4.483-21.191-5.587-6.382-.962-12.893-.4-20.37,1.03A67.04,67.04,0,0,0,0,362.419c22.028-3.76,29.17,1.875,41.869,4.913s22.057,3.038,37.763-.608,32.9-3.316,43.159.1c11.864,3.95,35.13,7.785,54.385-6" transform="translate(0 -312.66)" fill="#fff"/>
    <path id="Path_19" data-name="Path 19" d="M248.791,274.642a3.668,3.668,0,0,1,2.5-1.2c1.958-.036,4.676,1.915,3.646,4.405-1.823,4.405-2.186,8.818-.895,9.2,2.3.678,5.433.127,7.969-.1,1.449-.129,1.981,8.605-2.424,15.517-3.7,5.8-11.165,12.988-18.69,13.345,0,0-7.437-16.611-1.361-29.827a12.393,12.393,0,0,1,2.355.608,13.566,13.566,0,0,0,5.538.205s-1.285-7.724,1.367-12.152" transform="translate(-207.69 -239.481)" fill="#003473"/>
    <path id="Path_20" data-name="Path 20" d="M80.58,3.669l.441,1.7a6.911,6.911,0,0,1-.267,3.318l-1.136,4.6h-4.04l.974-3.949a8.786,8.786,0,0,1,1.521-3.48l1.707-2.2H64.566l.441,1.7a6.9,6.9,0,0,1-.266,3.314l-4.022,16.09a8.769,8.769,0,0,1-1.483,3.48l-1.707,2.195H72.742l-.441-1.7a6.73,6.73,0,0,1,.229-3.313L73.888,20h4.038l-1.194,4.776a8.769,8.769,0,0,1-1.484,3.48l-1.707,2.195H88.757l-.441-1.7a6.729,6.729,0,0,1,.229-3.313l4.022-16.09a8.788,8.788,0,0,1,1.521-3.48l1.707-2.2ZM91.247,9.014,87.225,25.1A7.881,7.881,0,0,0,87,29.089H76.323A10.086,10.086,0,0,0,78.052,25.1l1.616-6.466H72.826L71.21,25.1a7.882,7.882,0,0,0-.226,3.985H60.308A10.089,10.089,0,0,0,62.037,25.1L66.06,9.014a7.977,7.977,0,0,0,.263-3.985H77a10.081,10.081,0,0,0-1.767,3.985l-1.391,5.639h6.842l1.391-5.639a7.983,7.983,0,0,0,.263-3.985H93.014a10.081,10.081,0,0,0-1.767,3.985" transform="translate(-50.383 -3.213)" fill="#fff"/>
    <path id="Path_21" data-name="Path 21" d="M110.852,18.6l-4.022,16.09a7.881,7.881,0,0,0-.226,3.985H95.928a10.086,10.086,0,0,0,1.729-3.985l1.616-6.466H92.431l-1.616,6.466a7.88,7.88,0,0,0-.226,3.985H79.913a10.089,10.089,0,0,0,1.729-3.985L85.665,18.6a7.977,7.977,0,0,0,.263-3.985H96.6A10.082,10.082,0,0,0,94.837,18.6l-1.391,5.639h6.842l1.391-5.639a7.983,7.983,0,0,0,.263-3.985h10.676a10.082,10.082,0,0,0-1.767,3.985" transform="translate(-69.988 -12.804)" fill="#003473"/>
    <path id="Path_22" data-name="Path 22" d="M290.252,79.878l.981-3.6,1.747-6.52c-.25-1.889-1.662-12.59-1.944-15.262a5.376,5.376,0,0,0-.713-2.568L286.683,49.5h29.859v2.72a8.231,8.231,0,0,0-3.708,2.095c-.718,1.148-9.348,14.692-10.521,16.533L300.55,77.87l-2.63.033a.318.318,0,0,0,.021.066c-.024-.057-.265-.566-1.376-.7a5.192,5.192,0,0,0-3.261.485Zm5.442-5.379a10.124,10.124,0,0,1,1.189.071,5.372,5.372,0,0,1,1.584.424l1.315-5.239.119-.186c.1-.155,9.879-15.5,10.627-16.7a3.91,3.91,0,0,1,.529-.653h-6.108a1.252,1.252,0,0,0-.427.594,1,1,0,0,0,0,.483h2.9l-6.906,11.336-.574-3.666c-.109-.7-1.069-6.849-1.152-8.1a2.945,2.945,0,0,1,.028-.652h-5.433a12.314,12.314,0,0,1,.361,1.991c.3,2.835,1.954,15.332,1.971,15.458l.036.269L294.5,74.577a9.015,9.015,0,0,1,1.19-.077m6.2-22.4c-.2.173-.408.432-.4.592.035.534.293,2.348.563,4.169l.654-1.073-.259-.44A4.126,4.126,0,0,1,301.9,52.1" transform="translate(-251.077 -43.35)" fill="#fff"/>
    <path id="Path_23" data-name="Path 23" d="M332.95,60.448H322.842s.911.608,1.215,3.494,1.975,15.494,1.975,15.494l-1.817,6.782s.943-1,3.646-.684a3.461,3.461,0,0,1,2.734,2.431l2.121-8.074s9.874-15.494,10.633-16.71a8.793,8.793,0,0,1,4.861-2.734h-12a2.547,2.547,0,0,0-.911,3.8h1.367l-3.716,6.1s-1.058-6.753-1.139-7.975a2.463,2.463,0,0,1,1.139-1.921" transform="translate(-282.745 -52.94)" fill="#003473"/>
    <path id="Path_24" data-name="Path 24" d="M704.452,51.455A7.921,7.921,0,0,0,701,52.1l.094-.646H688.363l1.1,2.012a5.138,5.138,0,0,1-.125,3l-2.442,9.694a8.055,8.055,0,0,1-1.6,3.36l-2.322,2.322h16.4l-1.1-2.011a5.142,5.142,0,0,1,.126-3l1.5-6.009c.292-1.145.438-1.719,3.193-1.719h.865c1.64,0,2.172.26,2.5.541l1.675,1.424,2.371-9.61Zm2.895,7.15a4.936,4.936,0,0,0-3.383-.865H703.1c-2.97,0-3.985.677-4.511,2.744l-1.5,6.015a6.157,6.157,0,0,0,0,3.985H686.257a9.2,9.2,0,0,0,1.955-3.985l2.443-9.7a6.154,6.154,0,0,0,0-3.985h8.872l-.414,2.857h.075a5.3,5.3,0,0,1,5.263-2.857h4.323Z" transform="translate(-598.148 -45.064)" fill="#fff"/>
    <path id="Path_25" data-name="Path 25" d="M961.426,90.255h-3.834a1.449,1.449,0,0,0-1.541,1.316l-2.03,8.12c-.226.9.038,1.316.9,1.316h3.835a1.483,1.483,0,0,0,1.579-1.316l2.03-8.12c.226-.9-.075-1.316-.94-1.316m-2.41,9.106c-.044.179-.089.257-.087.269a.7.7,0,0,1-.172.016h-3.324L957.37,91.9a1.312,1.312,0,0,1,.1-.278.886.886,0,0,1,.126-.008h3.361Z" transform="translate(-835.465 -79.045)" fill="#fff"/>
    <path id="Path_26" data-name="Path 26" d="M898.737,53.108c-.87-1.112-2.323-1.653-4.439-1.653H880.012c-5.349,0-6.834,3.508-7.485,6.146l-1.843,7.444c-.364,1.475-.71,3.614.491,5.147.87,1.112,2.322,1.652,4.439,1.652H889.9c5.348,0,6.834-3.508,7.486-6.147l1.842-7.444c.364-1.475.71-3.613-.49-5.146m-.83,4.82-1.842,7.443c-.789,3.2-2.368,5.113-6.165,5.113H875.614c-3.8,0-4.4-1.917-3.609-5.113l1.842-7.443c.789-3.2,2.368-5.113,6.165-5.113H894.3c3.8,0,4.4,1.917,3.609,5.113" transform="translate(-762.246 -45.064)" fill="#fff"/>
    <path id="Path_27" data-name="Path 27" d="M1112.757,90.255l-1.484,6.11,12.039.082,1.484-6.192Zm9.7,5.118h-9.915l1.01-4.042h9.915Z" transform="translate(-973.254 -79.045)" fill="#fff"/>
    <path id="Path_28" data-name="Path 28" d="M594.253,213.616a5.646,5.646,0,0,0-4.715-1.878h-7.669a3.775,3.775,0,0,0-1.443.273l-.006-.273h-12.5l1.1,2.012a5.147,5.147,0,0,1-.126,3l-5.5,22.064h11.772l.82-1.945a6.534,6.534,0,0,1,.244-2.7l.538-2.223a3.937,3.937,0,0,0,1.223.18h7.143a7.917,7.917,0,0,0,8.047-6.29l1.769-7.075c.659-2.67-.018-4.273-.7-5.147m-.618,4.821-1.767,7.067a6.527,6.527,0,0,1-6.729,5.263H578a1.617,1.617,0,0,1-1.842-1.729h-.075l-1.165,4.812c-.376,1.617-.526,2.819-.151,3.609l-9.712.289,5.163-20.664a6.157,6.157,0,0,0,0-3.985h8.872l.038,1.88c.714-.94,1.391-1.88,2.744-1.88h7.669c3.834,0,4.849,2.293,4.1,5.338" transform="translate(-493.425 -185.44)" fill="#fff"/>
    <path id="Path_29" data-name="Path 29" d="M675.471,261.287a1.437,1.437,0,0,0,1.579-1.278l2.068-8.2c.226-.865-.038-1.278-.978-1.278h-3.534a1.434,1.434,0,0,0-1.5,1.278l-2.068,8.2c-.226.865.075,1.278.9,1.278Zm-1.052-9.13a1.215,1.215,0,0,1,.092-.256.783.783,0,0,1,.1-.005h3.088l-1.961,7.77a1.437,1.437,0,0,1-.085.25,1.116,1.116,0,0,1-.178.012h-3.013Z" transform="translate(-587.63 -219.419)" fill="#fff"/>
    <path id="Path_30" data-name="Path 30" d="M890.848,296.543c-1.579,0-1.992.451-2.256,1.466l-.564,2.143c-.263,1.015.038,1.429,1.466,1.429H891.9c1.429,0,1.729-.526,2.143-2.143l.714-2.895Zm1.878,2.558a5.348,5.348,0,0,1-.342,1.07,1.384,1.384,0,0,1-.484.049h-2.483l.492-1.869c.069-.266.119-.35.111-.35a2.05,2.05,0,0,1,.828-.1h2.174Z" transform="translate(-777.661 -259.713)" fill="#fff"/>
    <path id="Path_31" data-name="Path 31" d="M832.29,219.74c.689-2.776.506-4.787-.558-6.148-.977-1.248-2.615-1.855-5.009-1.855h-17.2l-3.274,8.149.589-.258a9.79,9.79,0,0,0-1.886,4l-.412,1.611c-.389,1.494-.765,3.659.438,5.216,1.16,1.5,3.181,1.675,4.6,1.675h6.692a7.794,7.794,0,0,0,2.492-.328l-.006.328h12.662l-1.1-2.011a5.135,5.135,0,0,1,.123-3Zm-3.162,7.04a6.156,6.156,0,0,0,0,3.985h-8.985l.038-1.955h-.075c-.714,1.541-1.8,1.955-3.834,1.955H809.58c-3.534,0-4.7-1.429-3.721-5.188l.413-1.616c.94-3.647,2.631-5.15,6.165-5.15H820.9c.977,0,1.429-.263,1.654-1.128.225-.9-.188-1.128-1.09-1.128h-9.135a8.237,8.237,0,0,0-3.571.752l1.692-4.21h16.278c3.647,0,5.451,1.466,4.248,6.316Z" transform="translate(-704.287 -185.439)" fill="#fff"/>
    <path id="Path_32" data-name="Path 32" d="M1113.238,250.535H1109.7a1.437,1.437,0,0,0-1.579,1.278l-2.068,8.2c-.226.865.037,1.278.977,1.278h3.534a1.434,1.434,0,0,0,1.5-1.278l2.068-8.2c.226-.865-.075-1.278-.9-1.278m-2.481,9.13a1.2,1.2,0,0,1-.092.256.772.772,0,0,1-.1.005h-3.088l1.961-7.77a1.433,1.433,0,0,1,.085-.25,1.119,1.119,0,0,1,.178-.012h3.013Z" transform="translate(-968.62 -219.419)" fill="#fff"/>
    <path id="Path_33" data-name="Path 33" d="M1049.9,182.051l5.463-21.772H1041.76l.984,1.968a5.421,5.421,0,0,1-.216,2.671l-.484,1.938a3.918,3.918,0,0,0-1.241-.186h-7.143a7.92,7.92,0,0,0-8.049,6.293l-1.768,7.071c-.659,2.671.018,4.273.7,5.147a5.646,5.646,0,0,0,4.715,1.878h7.669a3.2,3.2,0,0,0,1.218-.24l.005.24h12.723l-1.1-2.012a5.127,5.127,0,0,1,.124-3m-1.318,3.647h-9.1l-.038-1.88c-.564.789-1.353,1.88-2.519,1.88h-7.669c-3.834,0-4.849-2.293-4.1-5.338l1.767-7.068a6.527,6.527,0,0,1,6.729-5.263h7.143a1.617,1.617,0,0,1,1.842,1.729h.075l1.128-4.511c.414-1.616.526-2.782.113-3.609h9.661l-5.037,20.075a6.154,6.154,0,0,0,0,3.985" transform="translate(-896.449 -140.372)" fill="#fff"/>
    <path id="Path_34" data-name="Path 34" d="M1343.229,250.535c-1.015,0-1.428.376-1.692,1.391l-.6,2.443h6.2l.6-2.443c.263-1.015,0-1.391-1.015-1.391Zm2.844,2.474h-3.4l.183-.742a1.963,1.963,0,0,1,.12-.355,1.522,1.522,0,0,1,.255-.017h3.118Z" transform="translate(-1174.393 -219.419)" fill="#fff"/>
    <path id="Path_35" data-name="Path 35" d="M1273.616,213.416c-.88-1.13-2.354-1.679-4.508-1.679h-13.872c-4.059,0-6.437,1.927-7.485,6.067l-1.843,7.372c-.416,1.681-.741,3.805.446,5.322,1.142,1.459,3.105,1.628,4.483,1.628h18.768l3.347-8.148-.246.107,1.4-5.617c.362-1.431.705-3.511-.494-5.051m-.824,4.718-1.428,5.714h-14.849l-.414,1.654c-.3,1.165.188,1.8,1.391,1.8h8.985a9.354,9.354,0,0,0,3.947-.752l-1.729,4.21h-17.857c-3.684,0-4.511-1.616-3.609-5.263l1.842-7.368c.827-3.271,2.481-5.037,6.165-5.037h13.872c3.684,0,4.511,1.767,3.684,5.037m-2.681,7.074-.228.1a8.1,8.1,0,0,1-3.407.64h-8.985l-.1,0c.006-.033.015-.07.026-.112l.156-.624Z" transform="translate(-1090.836 -185.439)" fill="#fff"/>
    <path id="Path_36" data-name="Path 36" d="M344.013,74.306l2.159,15.662L343.9,98.345l-2.051.228L344.2,90.12l-2.178-16.953h3.646s-1.709.627-1.652,1.139" transform="translate(-299.391 -64.08)" fill="#fff"/>
    <path id="Path_37" data-name="Path 37" d="M429.511,73.167a1.04,1.04,0,0,0,.057,1.253s0-1.082,1.424-1.082l.646-.171Z" transform="translate(-376.003 -64.08)" fill="#fff"/>
    <path id="Path_38" data-name="Path 38" d="M307.287,271.446s-3.868,7.542-1.6,15.722a19.283,19.283,0,0,0-2.652,4.808A20.147,20.147,0,0,0,302,300.133s.931-5.979,2.012-8.436a22.752,22.752,0,0,1,2.594-4.378s-2.582-4.785,2.6-16.14Z" transform="translate(-264.44 -237.5)" fill="#fff"/>
    <path id="Path_39" data-name="Path 39" d="M257.7,389.3s-3.54.939-5.895-.274a34.407,34.407,0,0,0,.137,21.387s-2.8-8.342.348-20c0,0,4.044.343,5.41-1.117" transform="translate(-219.122 -340.711)" fill="#fff"/>
    <path id="Path_40" data-name="Path 40" d="M286.727,394.224s4.215,1.139,6.608.114c0,0,.911,19.14-19.368,25.862,0,0,16.52-4.557,17.773-24.267a8.579,8.579,0,0,1-5.013-1.709" transform="translate(-239.941 -345.262)" fill="#fff"/>
    <path id="Path_41" data-name="Path 41" d="M512.792,31.026a6.156,6.156,0,0,0,0,3.985h-9.1l-.038-1.88c-.564.79-1.353,1.88-2.519,1.88h-7.669c-3.834,0-4.849-2.293-4.1-5.338l1.767-7.068a6.527,6.527,0,0,1,6.729-5.263h7.143a1.617,1.617,0,0,1,1.842,1.729h.075l1.128-4.511c.414-1.617.526-2.782.113-3.609h9.661ZM505.273,20.8h-3.534a1.437,1.437,0,0,0-1.579,1.278l-2.068,8.2c-.225.865.038,1.278.978,1.278H502.6a1.433,1.433,0,0,0,1.5-1.278l2.068-8.2c.226-.865-.075-1.278-.9-1.278" transform="translate(-428.39 -9.591)" fill="#003473"/>
    <path id="Path_42" data-name="Path 42" d="M730.5,68.2a4.936,4.936,0,0,0-3.383-.865h-.865c-2.97,0-3.985.677-4.511,2.744l-1.5,6.015a6.157,6.157,0,0,0,0,3.985H709.412a9.2,9.2,0,0,0,1.955-3.985l2.443-9.7a6.154,6.154,0,0,0,0-3.985h8.872l-.414,2.857h.075a5.3,5.3,0,0,1,5.263-2.857h4.323Z" transform="translate(-621.304 -54.655)" fill="#003473"/>
    <path id="Path_43" data-name="Path 43" d="M905.655,74.963c-.789,3.2-2.368,5.113-6.165,5.113H885.2c-3.8,0-4.4-1.917-3.609-5.113l1.842-7.443c.79-3.2,2.368-5.113,6.165-5.113h14.285c3.8,0,4.4,1.917,3.609,5.113Zm-7.857-9.1h-3.834a1.449,1.449,0,0,0-1.541,1.316l-2.03,8.12c-.226.9.038,1.316.9,1.316h3.835a1.483,1.483,0,0,0,1.579-1.316l2.03-8.12c.226-.9-.075-1.316-.94-1.316" transform="translate(-771.837 -54.656)" fill="#003473"/>
    <path id="Path_44" data-name="Path 44" d="M1131.438,102.962h-9.915l1.01-4.042h9.915Z" transform="translate(-982.231 -86.634)" fill="#003473"/>
    <path id="Path_45" data-name="Path 45" d="M411.73,227.086c-.639-.94-3.158-1.165-4.887-1.165h-6.992c-.9,0-1.241.263-1.353.714l-.151.639c-.113.526.226.677.978.677h7.819c3.045,0,4.4,1.278,3.609,4.436l-.827,3.308a6.224,6.224,0,0,1-6.24,4.661H386.994l.376-4.248a8.144,8.144,0,0,0,4.586,1.015h8.233c.827,0,1.165-.338,1.316-.865l.151-.564c.15-.526-.113-.827-.9-.827h-8.045c-3.271,0-4.06-1.729-3.421-4.4l.827-3.383c.677-2.707,3.534-4.4,6.5-4.4h15.451Z" transform="translate(-338.93 -195.03)" fill="#003473"/>
    <path id="Path_46" data-name="Path 46" d="M838.737,236.372a6.158,6.158,0,0,0,0,3.985h-8.985l.038-1.955h-.075c-.714,1.541-1.8,1.955-3.834,1.955h-6.692c-3.534,0-4.7-1.429-3.722-5.188l.413-1.616c.94-3.647,2.632-5.15,6.165-5.15H830.5c.977,0,1.429-.263,1.654-1.128.225-.9-.188-1.128-1.09-1.128h-9.135a8.238,8.238,0,0,0-3.571.752l1.692-4.21h16.278c3.647,0,5.451,1.466,4.248,6.316Zm-11.654-4.511c-1.579,0-1.992.451-2.256,1.466l-.564,2.143c-.263,1.015.037,1.429,1.466,1.429h2.406c1.429,0,1.729-.526,2.143-2.143l.714-2.895Z" transform="translate(-713.897 -195.03)" fill="#003473"/>
    <path id="Path_47" data-name="Path 47" d="M1050.645,181.08h-3.534a1.437,1.437,0,0,0-1.579,1.278l-2.068,8.2c-.226.865.037,1.278.977,1.278h3.534a1.434,1.434,0,0,0,1.5-1.278l2.068-8.2c.225-.865-.075-1.278-.9-1.278m7.518,10.225a6.155,6.155,0,0,0,0,3.985h-9.1l-.037-1.88c-.564.789-1.353,1.88-2.519,1.88h-7.669c-3.835,0-4.849-2.293-4.1-5.338l1.767-7.068a6.527,6.527,0,0,1,6.729-5.263h7.143a1.617,1.617,0,0,1,1.842,1.729h.075l1.128-4.511c.414-1.616.526-2.782.113-3.609h9.661Z" transform="translate(-906.027 -149.963)" fill="#003473"/>
    <path id="Path_48" data-name="Path 48" d="M1280.982,233.44h-14.849l-.414,1.654c-.3,1.165.188,1.8,1.391,1.8h8.985a9.356,9.356,0,0,0,3.947-.752l-1.729,4.21h-17.857c-3.684,0-4.511-1.616-3.609-5.263l1.842-7.368c.827-3.271,2.481-5.037,6.165-5.037h13.872c3.684,0,4.511,1.767,3.684,5.037Zm-8.2-7.293h-3.5c-1.015,0-1.428.376-1.692,1.391l-.6,2.443h6.2l.6-2.443c.263-1.015,0-1.391-1.015-1.391" transform="translate(-1100.455 -195.03)" fill="#003473"/>
    <path id="Path_49" data-name="Path 49" d="M401.34,211.349l-17.051.048c-3.807,0-7.024,2.232-7.825,5.435l-.829,3.39c-.264,1.1-1.93,4.809-2.542,7.733a8.4,8.4,0,0,0,.085,3.831h18.177a7.6,7.6,0,0,0,7.56-5.692l.827-3.308a7.339,7.339,0,0,0,.241-2.355l.607.651Zm-1.939,5.807c-.639-.94-3.158-1.165-4.887-1.165h-6.992c-.9,0-1.241.263-1.353.714l-.151.639c-.113.526.226.677.978.677h7.819c3.045,0,4.4,1.278,3.609,4.436l-.827,3.308a6.224,6.224,0,0,1-6.241,4.661H374.666l.376-4.248a8.144,8.144,0,0,0,4.586,1.015h8.233c.827,0,1.165-.338,1.316-.865l.151-.564c.15-.526-.113-.827-.9-.827H380.38c-3.271,0-4.06-1.729-3.421-4.4l.827-3.383c.677-2.707,3.534-4.4,6.5-4.4H399.74Z" transform="translate(-326.601 -185.1)" fill="#fff"/>
    <path id="Path_50" data-name="Path 50" d="M233.591,49.5l3.641,2.428a5.378,5.378,0,0,1,.713,2.568c.281,2.672,1.694,13.373,1.944,15.262l-1.747,6.52-.619,2.273c-1.758,3.609-1.559,8.527-1.323,10.922a10.687,10.687,0,0,1-3.619-.313,10.72,10.72,0,0,0-2.755-.668h-.872l-.364.792c-6.262,13.62,1.042,30.249,1.356,30.951l.379.847.927-.044c3.682-.175,7.678-1.876,11.556-4.919a37.842,37.842,0,0,0,8.217-9.053c4.137-6.49,4.248-14.444,2.929-16.613a1.85,1.85,0,0,0-1.772-.989c-.479.043-.979.1-1.491.152a19.122,19.122,0,0,1-5.635.083c-.23-1.042.171-4.468,1.667-8.083a3.826,3.826,0,0,0,.317-1.756l2.182-9.012c1.173-1.841,9.8-15.385,10.521-16.533a8.231,8.231,0,0,1,3.708-2.095V49.5Zm15.214,2.6a4.127,4.127,0,0,0,.561,3.248l.259.44-.654,1.073c-.271-1.821-.528-3.635-.563-4.169-.011-.16.2-.419.4-.592m-3.577,29.62c-1.823,4.405-2.186,8.818-.895,9.2,2.3.678,5.433.128,7.969-.1,1.449-.129,1.981,8.605-2.424,15.517-3.7,5.8-11.165,12.988-18.69,13.345,0,0-7.437-16.611-1.361-29.826a12.4,12.4,0,0,1,2.355.608,13.569,13.569,0,0,0,5.538.205s-1.275-7.669,1.34-12.1l1.153-.8a3.814,3.814,0,0,1,1.288-.441c.028,0,.054,0,.082-.005,1.958-.036,4.676,1.915,3.646,4.405m13.362-28.125C257.83,54.807,247.956,70.3,247.956,70.3l-1.965,7.48a3.863,3.863,0,0,0-.689-.473,3.08,3.08,0,0,0-2.2-1.364c-2.7-.318-3.646.684-3.646.684l1.817-6.782S239.6,57.237,239.3,54.351s-1.215-3.494-1.215-3.494H248.19a2.463,2.463,0,0,0-1.139,1.921c.081,1.222,1.139,7.975,1.139,7.975l3.716-6.1h-1.367a2.547,2.547,0,0,1,.911-3.8h12a8.793,8.793,0,0,0-4.861,2.734" transform="translate(-197.986 -43.35)" fill="#fff"/>
    <path id="Path_51" data-name="Path 51" d="M504.407,24.769a5.133,5.133,0,0,1,.123-3L509.993,0H496.388l.985,1.968a5.43,5.43,0,0,1-.216,2.671l-.484,1.938a3.92,3.92,0,0,0-1.241-.186h-7.142a7.92,7.92,0,0,0-8.049,6.293l-1.768,7.071c-.659,2.67.018,4.273.7,5.147a5.646,5.646,0,0,0,4.715,1.878h2.063v.5h20.811V25.607h-1.9Zm-24.615-4.687,1.767-7.068a6.527,6.527,0,0,1,6.729-5.263h7.143a1.617,1.617,0,0,1,1.842,1.729h.075l1.128-4.511c.414-1.616.526-2.782.113-3.609h9.661l-5.037,20.075a6.155,6.155,0,0,0,0,3.985h-9.1l-.038-1.88c-.564.789-1.353,1.88-2.519,1.88H483.89c-3.834,0-4.849-2.293-4.1-5.338" transform="translate(-418.811)" fill="#fff"/>
    <path id="Path_52" data-name="Path 52" d="M566.7,99.729l2.068-8.2c.226-.865-.075-1.278-.9-1.278h-3.534a1.437,1.437,0,0,0-1.579,1.278l-2.068,8.2c-.225.865.037,1.278.977,1.278H565.2a1.434,1.434,0,0,0,1.5-1.278m-4.591-.082,1.96-7.77a1.438,1.438,0,0,1,.085-.25,1.128,1.128,0,0,1,.178-.012h3.013l-1.96,7.77a1.21,1.21,0,0,1-.092.256.75.75,0,0,1-.1.005Z" transform="translate(-490.982 -79.045)" fill="#fff"/>
  </g>
</svg>
